HIERARCHY
ROOT RootJoint
{
    OFFSET   0.000000   0.000000   0.000000
    CHANNELS 6 Xposition Yposition Zposition Xrotation Yrotation Zrotation
    JOINT lHip
    {
        OFFSET   0.100000  -0.051395   0.000000
        CHANNELS 3 Xrotation Yrotation Zrotation
        JOINT lKnee
        {
            OFFSET   0.000000  -0.410000   0.000000
            CHANNELS 3 Xrotation Yrotation Zrotation
            JOINT lAnkle
            {
                OFFSET   0.000000  -0.390000   0.000000
                CHANNELS 3 Xrotation Yrotation Zrotation
                JOINT lToeJoint
                {
                    OFFSET   0.000000  -0.050000   0.130000
                    CHANNELS 3 Xrotation Yrotation Zrotation
                    End Site
                    {
                        OFFSET   0.010000   0.002000   0.060000
                    }
                }
            }
        }
    }
    JOINT pelvis_lowerback
    {
        OFFSET   0.000000   0.093605   0.000000
        CHANNELS 3 Xrotation Yrotation Zrotation
        JOINT lowerback_torso
        {
            OFFSET   0.000000   0.100000   0.000000
            CHANNELS 3 Xrotation Yrotation Zrotation
            JOINT lTorso_Clavicle
            {
                OFFSET   0.001000   0.157500   0.000000
                CHANNELS 3 Xrotation Yrotation Zrotation
                JOINT lShoulder
                {
                    OFFSET   0.117647   0.000000   0.000000
                    CHANNELS 3 Xrotation Yrotation Zrotation
                    JOINT lElbow
                    {
                        OFFSET   0.245000   0.000000   0.000000
                        CHANNELS 3 Xrotation Yrotation Zrotation
                        JOINT lWrist
                        {
                            OFFSET   0.240000   0.000000   0.000000
                            CHANNELS 3 Xrotation Yrotation Zrotation
                            End Site
                            {
                                OFFSET   0.116353  -0.002500   0.000000
                            }
                        }
                    }
                }
            }
            JOINT rTorso_Clavicle
            {
                OFFSET  -0.001000   0.157500   0.000000
                CHANNELS 3 Xrotation Yrotation Zrotation
                JOINT rShoulder
                {
                    OFFSET  -0.117647   0.000000   0.000000
                    CHANNELS 3 Xrotation Yrotation Zrotation
                    JOINT rElbow
                    {
                        OFFSET  -0.245000   0.000000   0.000000
                        CHANNELS 3 Xrotation Yrotation Zrotation
                        JOINT rWrist
                        {
                            OFFSET  -0.240000   0.000000   0.000000
                            CHANNELS 3 Xrotation Yrotation Zrotation
                            End Site
                            {
                                OFFSET  -0.116353  -0.002500   0.000000
                            }
                        }
                    }
                }
            }
            JOINT torso_head
            {
                OFFSET   0.000000   0.282350   0.000000
                CHANNELS 3 Xrotation Yrotation Zrotation
                End Site
                {
                    OFFSET   0.000000   0.192650   0.000000
                }
            }
        }
    }
    JOINT rHip
    {
        OFFSET  -0.100000  -0.051395   0.000000
        CHANNELS 3 Xrotation Yrotation Zrotation
        JOINT rKnee
        {
            OFFSET   0.000000  -0.410000   0.000000
            CHANNELS 3 Xrotation Yrotation Zrotation
            JOINT rAnkle
            {
                OFFSET   0.000000  -0.390000   0.000000
                CHANNELS 3 Xrotation Yrotation Zrotation
                JOINT rToeJoint
                {
                    OFFSET   0.000000  -0.050000   0.130000
                    CHANNELS 3 Xrotation Yrotation Zrotation
                    End Site
                    {
                        OFFSET  -0.010000   0.002000   0.060000
                    }
                }
            }
        }
    }
}
MOTION
Frames: 9
Frame Time:   0.016667
-0.041199   0.898146   2.150607   -1.458457   -0.425727   -1.634241   -28.622568   9.346761   3.199817   66.954452   3.177844   2.590066   9.050126   2.243992   7.479057   -0.002747   0.002747   -0.002747   3.655756   -0.403754   1.046464   3.298695   -1.875944   0.063172   -0.002747   7.270314   -19.723507   16.965896   -28.320439   -51.518425   0.22797   -11.126574   0.02472   5.292744   6.82536   -2.419776   3.842527   2.337377   21.113298   7.825132   40.526436   43.575189   0.22797   18.690776   -2.348363   -4.809339   -8.36347   -1.562829   2.304417   0.337835   0.282902   -7.2813   0.436713   6.907759   13.093156   -3.01854   4.177615   -4.74342   -0.607004   -9.610437   -0.002747   -0.002747   0.002747   
-0.041199   0.898146   2.167086   -1.398032   -1.134356   -1.52987   -30.374914   9.659876   3.073472   64.828565   3.100938   2.491188   6.105745   1.996796   7.973449   -0.013733   0.002747   -0.035706   3.754635   -0.4477   1.211261   3.265736   -1.557336   -0.453193   -0.151064   7.896544   -19.602655   17.372396   -27.370108   -52.073243   0.233463   -10.928817   -0.189517   6.01236   6.688029   -2.194553   3.979858   2.760357   21.21767   6.122225   41.169146   42.970932   0.233463   19.503777   -2.634012   -5.298238   -8.215152   -1.711147   2.276951   0.365301   0.337835   -5.79263   0.381781   6.82536   12.477913   -2.573587   3.985351   -5.600366   -0.304875   -9.02266   -0.002747   -0.002747   -0.002747   
-0.041199   0.898146   2.183566   -1.315633   -1.810025   -1.288167   -31.424125   9.495079   2.727398   61.499657   3.172351   1.810025   4.111696   1.853971   7.72076   -0.057679   0.002747   -0.178531   3.837034   -0.359808   1.381552   3.249256   -0.716869   -0.991531   -0.019226   7.874571   -19.674067   18.00412   -27.20531   -52.155642   0.24445   -10.90135   -0.365301   6.050813   6.880293   -2.282444   3.84802   2.694438   21.102312   4.52369   41.224079   43.327993   0.222477   19.904784   -2.842756   -4.891737   -7.786679   -1.925383   2.249485   0.326848   0.299382   -4.353399   0.749828   6.63859   11.802243   -2.293431   3.815061   -6.396887   -0.057679   -8.896315   -0.002747   -0.002747   0.002747   
-0.041199   0.898146   2.205539   -1.222248   -2.463722   -1.062943   -32.336004   9.341268   2.403296   57.830167   3.293202   1.123369   2.529641   1.760586   7.48455   -0.101625   0.00824   -0.321355   3.88098   -0.266423   1.557336   3.271229   0.096132   -1.502403   0.118105   7.841611   -19.761959   18.61387   -27.024033   -52.25452   0.255436   -10.91783   -0.502632   5.946441   7.089036   -2.507668   3.710689   2.639506   20.970474   2.958114   41.273518   43.734493   0.216983   20.283818   -3.062486   -4.501717   -7.380179   -2.161593   2.216526   0.293889   0.260929   -2.963607   1.299153   6.473793   11.186999   -2.13962   3.666743   -7.248341   0.096132   -8.76997   -0.00824   -0.002747   0.002747   
-0.041199   0.898146   2.222019   -1.117876   -3.051499   -0.881666   -32.879835   9.203937   2.13962   53.331197   3.468986   0.420233   1.95285   1.788052   7.303273   -0.156558   0.00824   -0.480659   3.853513   -0.167544   1.738613   3.381094   0.83772   -1.947356   0.255436   7.781186   -19.882811   19.168688   -26.809796   -52.380865   0.260929   -11.033188   -0.519112   5.512474   7.341726   -3.062486   3.573358   2.617533   20.800183   1.458457   41.317464   44.245365   0.205997   20.629892   -3.293202   -4.155642   -7.017624   -2.452735   2.167086   0.266423   0.233463   -1.689174   2.309911   6.352941   10.742046   -2.309911   3.567864   -8.237125   0.002747   -8.643626   -0.00824   -0.002747   0.002747   
-0.041199   0.892653   2.238499   -0.980545   -3.595331   -0.727855   -33.302815   9.094072   1.886931   48.502632   3.639277   -0.222477   1.70016   1.815518   7.09453   -0.173037   0.013733   -0.546578   3.782101   -0.074159   1.947356   3.507439   1.540856   -2.37583   0.392767   7.70428   -19.998169   19.707027   -26.606546   -52.52369   0.266423   -11.165026   -0.530098   5.018082   7.51751   -3.694209   3.436027   2.584573   20.640879   -0.019226   41.317464   44.789197   0.200504   20.970474   -3.518425   -3.782101   -6.67155   -2.732891   2.106661   0.233463   0.21149   -0.486152   3.282216   6.23209   10.412451   -2.480201   3.474479   -9.297322   -0.068666   -8.5832   -0.013733   -0.002747   0.002747   
-0.041199   0.892653   2.260472   -0.722362   -3.968872   -0.661936   -33.352255   9.066606   1.672694   42.707256   3.622797   -0.689403   2.287938   1.815518   6.792401   -0.079652   0.00824   -0.249943   3.573358   0.02472   2.238499   3.617304   2.112154   -2.76585   0.519112   7.533989   -20.086061   20.184939   -26.458228   -52.704967   0.277409   -11.280385   -0.541085   4.430304   7.391165   -4.468757   3.309682   2.496681   20.509041   -1.430991   41.17464   45.4374   0.189517   21.333028   -3.710689   -3.265736   -6.358434   -2.919661   2.051728   0.189517   0.205997   0.486152   3.913939   6.177157   10.472877   -2.513161   3.40856   -10.593729   0.030213   -8.76997   -0.013733   -0.002747   0.002747   
-0.041199   0.88716   2.276951   -0.4477   -4.314946   -0.623484   -33.264363   9.033646   1.403525   36.64271   3.606317   -1.018997   2.903182   1.799039   6.298009   -0.002747   0.002747   -0.00824   3.337148   0.123598   2.535134   3.721675   2.644999   -3.111925   0.645457   7.363699   -20.173953   20.668345   -26.35935   -52.880751   0.282902   -11.384756   -0.574044   3.886473   7.303273   -5.144427   3.183337   2.408789   20.37171   -2.787823   40.987869   46.091096   0.184024   21.701076   -3.902953   -2.760357   -6.02884   -3.111925   1.991302   0.145571   0.189517   1.458457   4.452277   6.127718   10.51133   -2.518654   3.353628   -11.879149   0.151064   -8.967727   -0.013733   -0.002747   0.002747   
-0.041199   0.88716   2.298924   -0.085145   -4.551156   -0.711376   -32.621653   8.978714   0.925612   29.490501   3.375601   -0.821241   3.606317   1.744106   5.051041   -0.002747   0.002747   -0.013733   3.00206   0.222477   2.881209   3.776608   3.056992   -3.287709   0.777295   7.209888   -20.267338   21.151751   -26.474708   -53.029068   0.293889   -11.423209   -0.678416   3.534905   7.336233   -5.419089   3.056992   2.32639   20.179446   -3.908446   40.669261   46.777752   0.178531   22.113069   -4.089723   -2.287938   -5.644312   -3.320668   1.930877   0.112612   0.162051   2.430762   4.633555   6.127718   10.461891   -2.430762   3.353628   -13.142596   0.365301   -9.203937   -0.013733   -0.002747   0.002747   
